<?xml version="1.0" encoding="UTF-8"?><svg id="Layer_2" xmlns="http://www.w3.org/2000/svg" viewBox="0 0 90.02 24.12"><defs><style>.cls-1{fill:#1c1c1c;}.cls-2{fill:#0ba5ec;fill-rule:evenodd;}</style></defs><g id="Layer_1-2"><path class="cls-2" d="M5.9,5.3h-.38v1.91h.38v-1.91Z"/><path class="cls-2" d="M7.52,5.3h-.38v1.91h.38v-1.91Z"/><path class="cls-2" d="M9.74,1.67l-.39-.65L2.9,4.65l.39,.65L9.74,1.67Z"/><path class="cls-2" d="M9.7,1.67l.39-.65,6.45,3.64-.39,.65L9.7,1.67Z"/><path class="cls-2" d="M17.68,5.31v-.75H0v.75H17.68Z"/><path class="cls-2" d="M11.68,15.97V4.79h.77v11.73c-.21-.23-.47-.4-.77-.54Z"/><path class="cls-2" d="M9.36,15.78V0h.77V15.87c-.22-.1-.75-.09-.77-.09Z"/><path class="cls-2" d="M2.03,17.35c-.94-.68-1.57-1.77-1.57-3,0-.65,.18-1.3,.51-1.86H7.58c.34,.56,.51,1.21,.51,1.86,0,.57-.08,1.1-.31,1.58-.5-.47-1.24-.67-1.98-.67-1.32,0-2.45,.8-2.75,2-.1,0-.17-.02-.27-.02-.25,0-.5,.05-.75,.11Z"/><path class="cls-2" d="M5.27,8.05H3.27v1.96h2v-1.96Z"/><path class="cls-2" d="M3.02,8.05H1.02v1.96H3.02v-1.96Z"/><path class="cls-2" d="M3.02,10.24H1.02v1.96H3.02v-1.96Z"/><path class="cls-2" d="M5.27,10.24H3.27v1.96h2v-1.96Z"/><path class="cls-2" d="M7.52,10.24h-2v1.96h2v-1.96Z"/><path class="cls-2" d="M7.52,7h-2v1.96h2v-1.96Z"/><path class="cls-2" d="M3.38,17.65c.27-1.13,1.32-1.98,2.57-1.98,.8,0,1.52,.35,2.01,.9,.42-.29,.93-.45,1.49-.45,1.45,0,2.63,1.15,2.63,2.57,0,.29-.05,.57-.14,.84,.32,.42,.52,.96,.52,1.53,0,1.42-1.18,2.57-2.63,2.57-.64,0-1.23-.22-1.68-.59-.48,.65-1.26,1.09-2.15,1.09-1.02,0-1.91-.57-2.35-1.4-.18,.04-.36,.06-.55,.06-1.45,0-2.64-1.15-2.64-2.57s1.18-2.57,2.64-2.57c.09,0,.19,0,.28,0Z"/><path class="cls-1" d="M17.5,10.61c.25-.32,.59-.59,1.03-.81,.43-.22,.92-.33,1.47-.33,.62,0,1.19,.15,1.7,.45,.52,.29,.93,.71,1.22,1.25,.29,.54,.44,1.15,.44,1.85s-.15,1.32-.44,1.88c-.29,.55-.7,.97-1.22,1.28-.51,.3-1.08,.45-1.7,.45-.55,0-1.03-.1-1.46-.31-.42-.22-.77-.49-1.04-.81v4.31h-1.48V9.59h1.48v1.02Zm4.35,2.42c0-.48-.1-.89-.31-1.23-.2-.35-.47-.62-.81-.79-.33-.18-.68-.28-1.07-.28s-.73,.09-1.07,.28c-.33,.18-.6,.45-.81,.81-.2,.35-.3,.77-.3,1.25s.1,.9,.3,1.26c.21,.35,.48,.62,.81,.81,.34,.18,.69,.28,1.07,.28s.74-.09,1.07-.28c.34-.19,.61-.47,.81-.83,.21-.36,.31-.78,.31-1.26Z"/><path class="cls-1" d="M27.94,16.65c-.68,0-1.29-.15-1.83-.44-.55-.3-.97-.72-1.29-1.26-.31-.55-.47-1.18-.47-1.89s.16-1.33,.48-1.88c.32-.55,.76-.97,1.31-1.26s1.17-.44,1.86-.44,1.3,.15,1.86,.44,.99,.71,1.31,1.26c.32,.55,.48,1.17,.48,1.88s-.16,1.33-.49,1.88-.78,.97-1.35,1.27c-.56,.29-1.19,.44-1.87,.44Zm0-1.25c.38,0,.74-.09,1.07-.26,.34-.18,.61-.44,.82-.79,.21-.35,.31-.78,.31-1.28s-.1-.93-.3-1.27c-.2-.35-.46-.62-.79-.79-.33-.18-.68-.26-1.07-.26s-.74,.09-1.07,.26c-.32,.18-.58,.44-.77,.79-.19,.34-.29,.77-.29,1.27,0,.75,.19,1.33,.58,1.74,.4,.4,.9,.6,1.49,.6Z"/><path class="cls-1" d="M34.6,10.6c.22-.35,.5-.63,.86-.82,.36-.2,.79-.3,1.29-.3v1.49h-.38c-.58,0-1.02,.14-1.33,.43-.29,.29-.44,.78-.44,1.49v3.65h-1.48v-6.94h1.48v1.01Z"/><path class="cls-1" d="M39.84,10.76v3.84c0,.26,.06,.45,.18,.57,.13,.11,.35,.16,.65,.16h.91v1.2h-1.17c-.67,0-1.18-.15-1.53-.45-.36-.3-.53-.79-.53-1.47v-3.84h-.85v-1.17h.85v-1.73h1.49v1.73h1.74v1.17h-1.74Z"/><path class="cls-1" d="M42.45,13.03c0-.7,.15-1.31,.44-1.85,.3-.54,.71-.95,1.22-1.25,.52-.3,1.09-.45,1.72-.45,.56,0,1.05,.11,1.47,.33,.42,.21,.76,.47,1.01,.79v-1.01h1.49v6.94h-1.49v-1.03c-.25,.33-.59,.6-1.03,.82-.43,.22-.93,.33-1.48,.33-.62,0-1.18-.15-1.69-.45-.51-.31-.92-.74-1.22-1.28-.29-.55-.44-1.18-.44-1.88Zm5.86,.03c0-.48-.1-.89-.31-1.25-.2-.35-.46-.62-.79-.81-.33-.18-.68-.28-1.07-.28s-.74,.09-1.07,.28c-.33,.18-.6,.44-.81,.79-.2,.34-.3,.76-.3,1.23s.1,.9,.3,1.26c.21,.36,.48,.64,.81,.83,.34,.18,.69,.28,1.07,.28s.74-.09,1.07-.28c.33-.18,.59-.45,.79-.81,.21-.36,.31-.78,.31-1.26Z"/><path class="cls-1" d="M52.51,8.67c-.27,0-.49-.09-.68-.26-.18-.18-.27-.39-.27-.66s.09-.48,.27-.66c.18-.18,.41-.26,.68-.26s.48,.09,.66,.26c.18,.18,.27,.39,.27,.66s-.09,.48-.27,.66c-.18,.18-.4,.26-.66,.26Zm.73,.92v6.94h-1.48v-6.94h1.48Z"/><path class="cls-1" d="M58.79,9.48c.56,0,1.07,.11,1.51,.34,.45,.23,.8,.56,1.05,1.01,.25,.45,.38,.98,.38,1.61v4.09h-1.47v-3.88c0-.62-.16-1.1-.48-1.42-.32-.34-.76-.5-1.31-.5s-1,.17-1.33,.5c-.32,.33-.48,.8-.48,1.42v3.88h-1.48v-6.94h1.48v.79c.24-.29,.55-.51,.92-.67,.38-.16,.78-.24,1.21-.24Z"/><path class="cls-1" d="M70.19,12.89c0,.26-.02,.5-.05,.71h-5.47c.04,.55,.26,1,.64,1.34s.85,.5,1.4,.5c.8,0,1.36-.32,1.69-.97h1.6c-.22,.64-.61,1.16-1.18,1.57-.56,.4-1.27,.6-2.11,.6-.68,0-1.3-.15-1.85-.44-.54-.3-.96-.72-1.27-1.26-.3-.55-.45-1.18-.45-1.89s.15-1.34,.44-1.88c.3-.55,.72-.97,1.26-1.26,.55-.29,1.17-.44,1.87-.44s1.28,.14,1.81,.43c.53,.29,.94,.69,1.23,1.21,.29,.51,.44,1.1,.44,1.78Zm-1.55-.45c0-.53-.2-.95-.58-1.27-.38-.32-.85-.48-1.42-.48-.51,0-.95,.16-1.31,.48-.36,.31-.58,.73-.65,1.27h3.96Z"/><path class="cls-1" d="M73.13,10.6c.22-.35,.5-.63,.86-.82,.36-.2,.79-.3,1.29-.3v1.49h-.38c-.58,0-1.02,.14-1.33,.43-.29,.29-.44,.78-.44,1.49v3.65h-1.48v-6.94h1.48v1.01Z"/><path class="cls-1" d="M77.23,16.62c-.27,0-.49-.09-.68-.26-.18-.18-.27-.39-.27-.66s.09-.48,.27-.66c.18-.18,.41-.26,.68-.26s.48,.09,.66,.26c.18,.18,.27,.39,.27,.66s-.09,.48-.27,.66c-.18,.18-.4,.26-.66,.26Z"/><path class="cls-1" d="M80.52,8.67c-.27,0-.49-.09-.68-.26-.18-.18-.27-.39-.27-.66s.09-.48,.27-.66c.18-.18,.41-.26,.68-.26s.48,.09,.66,.26c.18,.18,.27,.39,.27,.66s-.09,.48-.27,.66c-.18,.18-.4,.26-.66,.26Zm.73,.92v6.94h-1.48v-6.94h1.48Z"/><path class="cls-1" d="M86.3,16.65c-.68,0-1.29-.15-1.83-.44-.55-.3-.97-.72-1.29-1.26-.31-.55-.47-1.18-.47-1.89s.16-1.33,.48-1.88c.32-.55,.76-.97,1.31-1.26,.55-.29,1.17-.44,1.86-.44s1.3,.15,1.86,.44c.55,.29,.99,.71,1.31,1.26,.32,.55,.48,1.17,.48,1.88s-.16,1.33-.49,1.88-.78,.97-1.35,1.27c-.56,.29-1.19,.44-1.87,.44Zm0-1.25c.38,0,.74-.09,1.07-.26,.34-.18,.61-.44,.82-.79,.21-.35,.31-.78,.31-1.28s-.1-.93-.3-1.27c-.2-.35-.46-.62-.79-.79-.33-.18-.68-.26-1.07-.26s-.74,.09-1.07,.26c-.32,.18-.58,.44-.77,.79-.19,.34-.29,.77-.29,1.27,0,.75,.19,1.33,.58,1.74,.4,.4,.9,.6,1.49,.6Z"/></g></svg>